<svg xmlns="http://www.w3.org/2000/svg" width="1600" height="900" viewBox="0 0 1600 900" role="img" aria-labelledby="title desc">
<title>Coolers</title>
<desc>Ice boxes and powered coolers for road trips.</desc>
<defs>
  <linearGradient id="g" x1="0" y1="0" x2="1" y2="1">
    <stop offset="0%" stop-color="#0d2135"/>
    <stop offset="100%" stop-color="#06121f"/>
  </linearGradient>
  <radialGradient id="r" cx="0.2" cy="0.15" r="0.8">
    <stop offset="0%" stop-color="#43d6ff" stop-opacity="0.65"/>
    <stop offset="100%" stop-color="#43d6ff" stop-opacity="0"/>
  </radialGradient>
</defs>
<rect width="1600" height="900" fill="url(#g)"/>
<rect width="1600" height="900" fill="url(#r)"/>
<g opacity="0.15">
  <circle cx="1240" cy="140" r="180" fill="#fff"/>
  <circle cx="1420" cy="680" r="240" fill="#fff"/>
  <circle cx="180" cy="760" r="220" fill="#fff"/>
</g>
<g transform="translate(110,130)">
  <rect x="120" y="170" width="320" height="220" rx="34" fill="#eaf7ff" opacity=".18" stroke="#eaf7ff" stroke-width="18"/><rect x="150" y="210" width="260" height="150" rx="24" fill="#7ef7d4" opacity=".25"/><path d="M200 170 C210 130 350 130 360 170" fill="none" stroke="#eaf7ff" stroke-width="18" stroke-linecap="round"/><line x1="210" y1="170" x2="210" y2="120" stroke="#eaf7ff" stroke-width="14"/><line x1="350" y1="170" x2="350" y2="120" stroke="#eaf7ff" stroke-width="14"/>
  <circle cx="500" cy="195" r="20" fill="#eaf7ff" opacity=".9"/>
<circle cx="550" cy="245" r="16" fill="#eaf7ff" opacity=".65"/>
</g>
<text x="110" y="760" font-family="Inter,Arial,sans-serif" font-size="72" font-weight="800" fill="white">Coolers</text>
<text x="110" y="820" font-family="Inter,Arial,sans-serif" font-size="30" fill="#cfe4ff">Ice boxes and powered coolers for road trips.</text>
</svg>