<svg xmlns="http://www.w3.org/2000/svg" width="1600" height="900" viewBox="0 0 1600 900" role="img" aria-labelledby="title desc">
<title>Stoves</title>
<desc>Portable burners and campsite cooking systems.</desc>
<defs>
  <linearGradient id="g" x1="0" y1="0" x2="1" y2="1">
    <stop offset="0%" stop-color="#101a2d"/>
    <stop offset="100%" stop-color="#07111c"/>
  </linearGradient>
  <radialGradient id="r" cx="0.2" cy="0.15" r="0.8">
    <stop offset="0%" stop-color="#56c7ff" stop-opacity="0.65"/>
    <stop offset="100%" stop-color="#56c7ff" stop-opacity="0"/>
  </radialGradient>
</defs>
<rect width="1600" height="900" fill="url(#g)"/>
<rect width="1600" height="900" fill="url(#r)"/>
<g opacity="0.15">
  <circle cx="1240" cy="140" r="180" fill="#fff"/>
  <circle cx="1420" cy="680" r="240" fill="#fff"/>
  <circle cx="180" cy="760" r="220" fill="#fff"/>
</g>
<g transform="translate(110,130)">
  <rect x="120" y="220" width="320" height="130" rx="26" fill="#eaf7ff" opacity=".16" stroke="#eaf7ff" stroke-width="18"/><circle cx="220" cy="285" r="46" fill="none" stroke="#7ef7d4" stroke-width="14"/><circle cx="340" cy="285" r="46" fill="none" stroke="#7ef7d4" stroke-width="14"/><path d="M260 160 C300 80 370 105 390 170" fill="none" stroke="#ffd37a" stroke-width="20" stroke-linecap="round"/><path d="M250 170 C275 125 315 125 340 170" fill="none" stroke="#ff9f43" stroke-width="16" stroke-linecap="round"/>
  <path d="M60 490 C190 455 320 465 500 430 L500 530 L60 530 Z" fill="#123451" opacity=".68"/>
</g>
<text x="110" y="760" font-family="Inter,Arial,sans-serif" font-size="72" font-weight="800" fill="white">Stoves</text>
<text x="110" y="820" font-family="Inter,Arial,sans-serif" font-size="30" fill="#cfe4ff">Portable burners and campsite cooking systems.</text>
</svg>